<?xml version="1.0" standalone="no"?>
<!DOCTYPE svg PUBLIC "-//W3C//DTD SVG 20010904//EN"
 "http://www.w3.org/TR/2001/REC-SVG-20010904/DTD/svg10.dtd">
<svg version="1.0" xmlns="http://www.w3.org/2000/svg"
 width="1098.000000pt" height="990.000000pt" viewBox="0 0 1098.000000 990.000000"
 preserveAspectRatio="xMidYMid meet">

<g transform="translate(0.000000,990.000000) scale(0.100000,-0.100000)"
fill="#000000" stroke="none">
<path d="M3560 9519 c-144 -18 -230 -68 -391 -229 l-126 -125 -12 -80 c-7 -44
-21 -111 -31 -150 -10 -38 -21 -101 -24 -140 -3 -38 -16 -109 -28 -158 -22
-86 -22 -88 -5 -155 10 -37 34 -94 54 -127 19 -33 59 -122 88 -198 29 -75 68
-163 86 -194 52 -89 187 -217 334 -317 176 -120 284 -203 374 -289 132 -125
203 -183 291 -238 47 -28 117 -81 155 -117 61 -57 266 -202 285 -202 4 0 7
-15 8 -32 2 -62 71 -303 132 -467 81 -215 129 -323 200 -451 32 -58 70 -144
84 -191 14 -47 34 -93 45 -103 38 -34 45 -69 26 -133 -10 -32 -17 -73 -17 -92
1 -19 -7 -48 -17 -65 -16 -26 -19 -48 -17 -143 1 -62 5 -116 9 -119 3 -4 -2
-19 -12 -33 -10 -14 -22 -37 -26 -50 -4 -12 -35 -51 -69 -85 -72 -72 -126
-174 -152 -281 -19 -83 -15 -266 7 -307 70 -127 71 -130 60 -157 -6 -14 -18
-98 -26 -186 -9 -88 -18 -167 -22 -175 -4 -8 -10 -125 -13 -260 -6 -223 -8
-249 -28 -293 l-22 -49 -33 22 c-17 12 -69 39 -113 61 -82 40 -112 48 -397 99
-115 20 -237 55 -427 122 -111 39 -121 44 -114 61 3 9 -9 17 -33 23 -30 7 -45
20 -75 64 -43 64 -54 103 -72 251 -16 125 -37 176 -87 202 -71 38 -219 -13
-377 -130 -75 -54 -103 -68 -246 -117 -288 -98 -391 -147 -500 -237 -100 -82
-121 -111 -132 -176 -6 -37 -4 -39 36 -62 47 -26 51 -26 320 4 185 20 234 19
316 -9 38 -12 103 -26 144 -30 82 -8 137 -27 146 -50 3 -8 33 -33 67 -57 111
-76 126 -96 85 -114 -15 -7 -23 -19 -23 -35 0 -37 28 -36 72 3 21 19 47 36 58
38 27 6 31 46 8 78 -111 152 133 46 600 -261 161 -105 335 -214 387 -243 52
-28 146 -86 209 -128 125 -85 239 -144 345 -176 118 -36 172 -27 271 45 76 56
117 113 209 286 84 161 104 184 159 193 23 3 70 20 103 36 82 39 94 64 94 199
0 82 5 116 25 176 29 87 91 214 104 214 23 0 369 -244 464 -327 79 -70 119
-88 192 -88 56 0 70 5 214 83 l154 83 28 -27 29 -27 -31 -51 c-85 -142 -116
-240 -154 -486 -45 -296 -109 -571 -152 -655 -14 -27 -32 -72 -40 -99 -11 -38
-33 -68 -94 -132 -47 -49 -79 -91 -79 -103 0 -16 -6 -21 -25 -21 -34 0 -235
-85 -293 -124 -81 -54 -81 -111 0 -232 28 -42 113 -141 189 -220 96 -100 152
-167 183 -221 44 -77 189 -256 279 -346 53 -53 147 -103 212 -113 90 -13 152
45 143 135 -3 25 -43 143 -89 261 -81 209 -84 218 -84 300 -1 47 -4 121 -9
165 -8 78 -7 83 29 175 61 158 76 204 73 230 -3 22 -7 25 -45 24 -35 -1 -43 3
-43 17 0 53 76 211 278 578 64 116 129 253 177 374 42 105 94 221 116 257 21
36 50 94 64 130 15 36 47 110 73 165 42 89 47 108 47 170 0 111 -23 142 -295
416 -259 260 -415 392 -571 486 -134 79 -159 102 -159 146 0 21 -11 50 -27 73
-14 21 -37 54 -50 73 -25 37 -30 71 -10 71 20 0 95 -51 161 -108 62 -54 74
-60 94 -40 23 23 12 48 -50 107 -34 34 -60 62 -57 65 2 2 37 -10 78 -26 80
-32 121 -32 121 2 0 11 -8 25 -17 30 -269 160 -372 215 -471 251 -94 35 -123
50 -169 93 -75 68 -84 91 -72 191 5 44 8 256 7 470 -1 232 3 455 11 550 14
192 5 301 -37 425 -38 110 -61 155 -111 211 -57 65 -380 327 -448 364 -65 34
-79 61 -68 131 5 34 11 45 28 48 109 23 134 32 159 57 27 26 28 32 29 126 0
102 7 155 30 236 l14 49 -59 52 -59 52 7 45 c7 46 -16 126 -64 219 -24 48 -90
106 -156 136 -105 49 -328 56 -449 14 -115 -39 -207 -133 -240 -243 -32 -107
-12 -290 40 -369 32 -48 105 -220 112 -263 3 -19 3 -41 -1 -50 -5 -14 -9 -14
-43 1 -82 35 -212 73 -293 84 -122 17 -138 23 -257 107 -126 88 -157 104 -320
167 -210 82 -262 113 -306 178 -38 58 -295 305 -405 391 -34 26 -62 51 -62 56
0 4 30 13 67 19 59 10 73 9 127 -10 85 -29 222 -35 306 -14 109 27 188 72 265
150 112 113 165 237 165 391 0 341 -291 596 -630 554z"/>
<path d="M5873 7966 c28 -27 50 -60 58 -85 9 -32 18 -41 40 -46 16 -3 43 -8
60 -11 35 -7 82 -66 113 -142 22 -56 26 -203 7 -269 -6 -24 -13 -43 -14 -43
-2 0 -56 23 -121 50 -65 28 -120 50 -122 50 -2 0 -4 -5 -4 -12 0 -28 -45 -101
-75 -121 l-33 -23 129 -54 c71 -30 129 -59 129 -65 0 -5 -18 -28 -40 -50 l-40
-41 95 -78 c52 -42 99 -74 105 -71 5 3 30 35 56 71 l46 65 67 -37 c87 -49 296
-185 394 -258 l79 -58 -20 -21 c-33 -37 -397 -480 -421 -513 -21 -29 -23 -43
-28 -230 l-6 -199 64 81 c35 44 181 230 323 412 l259 331 80 -72 c101 -91 364
-354 384 -383 13 -21 10 -28 -51 -111 -205 -277 -332 -692 -372 -1216 -6 -71
-4 -91 8 -105 25 -28 40 -88 32 -127 -4 -22 -20 -50 -39 -69 -29 -30 -33 -40
-39 -115 -7 -79 -7 -84 15 -99 13 -9 62 -47 108 -84 46 -37 85 -67 87 -65 1 1
7 63 14 137 31 369 43 488 65 635 58 388 139 669 256 880 58 104 87 143 97
129 4 -6 37 -48 73 -95 365 -464 583 -972 644 -1497 l15 -129 -31 -104 c-106
-356 -295 -706 -547 -1012 -37 -46 -75 -105 -89 -140 -14 -34 -40 -87 -59
-118 -34 -56 -45 -81 -85 -181 l-20 -51 58 51 c32 27 108 101 168 164 964 998
1140 2513 431 3706 -142 237 -299 434 -513 643 -398 387 -899 657 -1451 783
-117 27 -300 56 -353 56 l-33 0 47 -44z m747 -309 c99 -39 205 -89 310 -147
109 -60 303 -185 320 -205 10 -12 -19 -51 -146 -202 -86 -103 -161 -192 -165
-197 -4 -5 -29 7 -56 26 -98 72 -262 177 -378 243 -66 37 -130 74 -142 81
l-21 13 20 63 c29 90 36 266 14 340 -9 31 -16 61 -16 66 0 10 126 -29 260 -81z
m923 -597 c129 -124 229 -237 334 -378 82 -111 190 -282 183 -290 -3 -3 -34
-4 -70 -3 -85 2 -164 -19 -278 -75 l-93 -45 -136 141 c-75 78 -191 189 -257
248 -67 58 -120 108 -120 110 5 13 310 402 316 402 4 0 58 -49 121 -110z m592
-908 c61 -29 67 -35 92 -89 41 -93 119 -338 146 -463 53 -238 81 -536 70 -739
l-6 -104 -62 189 c-127 385 -324 764 -559 1073 -31 41 -56 77 -56 81 0 10 96
61 144 77 64 20 154 11 231 -25z"/>
<path d="M4515 7856 c-192 -69 -179 -55 -104 -110 90 -67 125 -82 199 -90 36
-4 82 -12 104 -17 21 -6 40 -8 43 -5 3 2 -7 25 -22 50 -21 36 -33 46 -53 47
-25 0 -25 1 -6 9 l21 8 -21 76 c-12 42 -25 76 -31 75 -5 0 -64 -19 -130 -43z"/>
<path d="M3552 7306 c-890 -747 -1284 -1961 -1002 -3087 32 -130 98 -339 106
-339 6 0 147 42 151 44 1 1 -17 62 -42 136 -76 235 -117 455 -136 726 l-11
154 58 87 c95 143 257 317 409 438 114 92 321 225 460 297 133 68 487 211 883
358 122 45 222 85 222 88 0 6 -71 202 -74 202 -1 0 -114 -38 -251 -83 -756
-253 -1189 -497 -1563 -881 l-114 -116 7 52 c12 96 56 290 90 403 109 357 259
651 493 960 86 113 386 417 480 485 33 25 61 48 62 52 0 11 -111 98 -126 98
-7 0 -53 -33 -102 -74z"/>
<path d="M4447 3798 c-247 -318 -272 -354 -253 -359 35 -10 256 -42 259 -38 2
2 55 69 118 149 130 164 130 164 149 360 7 69 15 143 19 166 5 28 4 47 -4 58
-11 15 -48 -28 -288 -336z"/>
<path d="M6702 2963 c-6 -16 -29 -80 -52 -143 -85 -236 -236 -507 -358 -645
-40 -44 -100 -63 -312 -95 -450 -69 -912 -31 -1357 111 -214 69 -496 205 -691
335 -128 86 -124 67 -40 172 36 45 45 62 35 70 -6 5 -51 34 -99 65 l-87 56
-52 -70 -52 -70 -26 23 c-14 12 -63 58 -107 101 l-81 79 -36 -31 c-19 -17 -52
-37 -72 -44 l-36 -13 123 -119 c186 -181 360 -314 581 -444 721 -423 1610
-532 2414 -296 63 19 121 39 128 45 23 19 96 336 134 585 26 168 38 226 56
288 17 59 18 67 6 67 -5 0 -13 -12 -19 -27z"/>
</g>
</svg>
