<?xml version="1.0" standalone="no"?>
<!DOCTYPE svg PUBLIC "-//W3C//DTD SVG 20010904//EN"
 "http://www.w3.org/TR/2001/REC-SVG-20010904/DTD/svg10.dtd">
<svg version="1.0" xmlns="http://www.w3.org/2000/svg"
 width="529.000000pt" height="472.000000pt" viewBox="0 0 529.000000 472.000000"
 preserveAspectRatio="xMidYMid meet">

<g transform="translate(0.000000,472.000000) scale(0.100000,-0.100000)"
fill="#000000" stroke="none">
<path d="M2425 4704 c-16 -2 -70 -9 -120 -15 -407 -49 -838 -234 -1170 -504
-104 -85 -280 -260 -356 -355 -90 -112 -208 -300 -274 -435 -142 -291 -210
-544 -236 -881 -29 -380 57 -811 233 -1171 229 -468 618 -857 1083 -1083 226
-111 499 -192 737 -219 123 -14 449 -14 559 0 545 69 1025 308 1399 695 433
448 660 1008 660 1624 0 371 -71 694 -221 1010 -298 624 -864 1093 -1529 1266
-180 47 -322 65 -535 69 -110 2 -213 2 -230 -1z m462 -269 c374 -49 739 -205
1028 -440 102 -83 278 -261 346 -350 573 -751 569 -1832 -10 -2565 -129 -163
-361 -371 -531 -476 -475 -295 -1023 -393 -1550 -278 -448 98 -848 335 -1145
677 -314 362 -483 795 -502 1282 -37 980 577 1826 1522 2094 239 68 577 90
842 56z"/>
<path d="M2600 4101 c0 -5 7 -11 14 -14 10 -4 13 -1 9 9 -6 15 -23 19 -23 5z"/>
<path d="M2601 4061 c-1 -15 -6 -21 -15 -18 -9 4 -12 0 -9 -12 3 -11 -2 -21
-11 -24 -9 -4 -16 -16 -16 -27 0 -12 -4 -18 -10 -15 -6 3 -7 -1 -4 -9 4 -10
-1 -18 -11 -22 -9 -4 -14 -13 -11 -20 3 -8 1 -14 -4 -14 -6 0 -10 -5 -10 -11
0 -6 9 -8 22 -3 20 6 21 5 10 -9 -8 -9 -21 -13 -34 -9 -14 3 -19 1 -14 -6 3
-6 -1 -17 -9 -25 -8 -9 -15 -22 -15 -29 0 -7 -9 -28 -20 -46 -11 -18 -20 -40
-20 -50 0 -10 -9 -25 -20 -35 -11 -9 -25 -37 -32 -62 -7 -25 -16 -45 -21 -45
-4 0 -6 -4 -2 -10 3 -5 -3 -18 -15 -30 -11 -11 -20 -26 -20 -32 0 -9 4 -8 10
2 16 25 10 -3 -6 -30 -8 -14 -13 -17 -10 -7 7 21 -10 23 -18 1 -3 -8 1 -25 9
-38 12 -18 13 -29 4 -54 -10 -29 -29 -36 -29 -11 0 6 5 7 10 4 6 -4 10 5 8 24
-3 40 -17 40 -25 0 -3 -18 -9 -26 -13 -19 -5 8 -12 0 -19 -20 -6 -18 -8 -36
-5 -41 3 -5 1 -9 -5 -9 -6 0 -16 -10 -22 -22 -9 -19 -9 -21 2 -10 16 15 29 16
29 1 0 -5 -4 -8 -9 -5 -11 7 -23 -22 -15 -36 4 -7 9 -6 14 2 4 7 8 1 8 -16 0
-15 6 -32 14 -38 8 -6 25 -32 38 -59 13 -26 32 -56 41 -66 10 -10 15 -22 11
-26 -4 -4 3 -2 16 4 12 6 22 15 22 20 0 5 8 26 17 47 9 22 16 42 15 47 -1 4 3
7 9 7 6 0 8 8 4 19 -3 11 -1 22 4 26 7 3 8 0 5 -9 -3 -9 -4 -16 0 -16 5 0 56
105 56 116 0 3 -4 3 -9 -1 -5 -3 -12 -1 -16 5 -3 5 1 10 9 10 9 0 16 8 16 18
0 13 2 14 9 3 7 -10 13 -5 26 23 9 20 15 43 11 51 -3 8 0 14 7 12 7 -1 11 6
11 16 -1 9 4 17 11 17 8 0 16 9 20 19 5 15 15 19 51 19 36 0 43 -2 34 -13 -13
-16 7 -68 23 -58 6 4 8 0 4 -10 -4 -11 -1 -17 8 -17 8 0 15 5 15 12 0 6 3 8 6
5 4 -4 2 -12 -3 -19 -14 -17 -11 -32 25 -110 30 -64 52 -93 52 -67 0 7 3 9 6
6 4 -4 1 -13 -6 -22 -10 -12 -10 -15 4 -15 9 0 16 5 16 10 0 6 20 10 45 10 35
0 45 -4 45 -16 0 -12 -7 -15 -30 -12 -22 3 -30 0 -30 -10 0 -12 -3 -12 -15 -2
-13 10 -15 9 -15 -9 0 -12 5 -19 10 -16 6 4 10 -7 10 -24 0 -44 25 -39 47 9 8
18 12 20 12 8 1 -10 -8 -32 -18 -49 -15 -24 -17 -35 -8 -44 7 -7 16 -10 21 -7
5 3 6 0 2 -6 -4 -6 0 -25 9 -42 8 -16 13 -30 10 -30 -3 0 2 -15 11 -32 17 -32
52 -65 66 -61 4 2 6 -6 5 -17 -1 -10 -5 -16 -9 -14 -14 9 -9 -23 6 -35 7 -6
16 -25 20 -41 3 -18 12 -30 21 -30 8 0 16 -4 16 -10 1 -5 3 -19 4 -30 1 -11 3
-24 4 -30 0 -5 9 -17 19 -27 10 -10 24 -38 31 -61 11 -39 14 -42 25 -26 12 16
13 15 18 -9 3 -14 1 -28 -4 -29 -6 -2 -4 -15 3 -30 6 -15 16 -25 20 -22 5 3 9
-4 9 -15 0 -22 49 -123 63 -129 4 -2 5 -8 1 -13 -3 -5 0 -9 5 -9 6 0 10 -3 10
-7 -3 -20 2 -34 10 -29 5 4 7 -3 4 -13 -3 -13 2 -23 17 -31 12 -6 19 -18 16
-25 -3 -9 0 -12 10 -8 12 4 14 0 9 -19 -4 -17 1 -36 15 -59 12 -19 19 -26 16
-16 -3 11 -2 16 5 12 5 -4 9 -14 7 -23 -2 -19 32 -102 42 -102 4 0 7 -6 7 -12
1 -27 30 -80 37 -69 9 13 26 5 26 -12 0 -7 -4 -6 -10 3 -8 12 -10 9 -10 -12 0
-16 4 -28 9 -28 5 0 11 -10 13 -22 2 -13 10 -23 18 -23 9 0 15 -10 16 -25 1
-41 4 -50 14 -50 6 0 10 10 10 22 0 37 12 11 16 -34 1 -24 3 -46 3 -50 1 -5 7
-8 15 -8 8 0 18 -5 22 -12 4 -7 3 -8 -4 -4 -7 4 -12 2 -12 -3 0 -6 6 -11 14
-11 19 0 32 -40 16 -50 -8 -5 -7 -9 5 -14 10 -4 15 -12 11 -22 -3 -8 0 -22 8
-29 11 -11 15 -10 29 5 8 10 13 21 10 24 -4 3 -1 6 5 6 13 0 31 31 37 61 2 12
-2 19 -11 19 -8 0 -13 4 -10 9 4 5 17 8 31 7 40 -5 96 80 65 99 -5 3 -7 12 -4
19 3 7 -2 21 -11 29 -8 9 -22 35 -30 57 -8 23 -24 54 -35 70 -11 15 -20 32
-20 37 0 9 -47 104 -70 143 -5 8 -32 63 -61 123 -29 59 -56 107 -60 107 -4 0
-6 8 -5 17 0 10 -5 18 -13 18 -8 0 -16 7 -18 15 -4 13 -3 13 6 0 28 -39 7 20
-40 116 -54 110 -66 125 -80 103 -5 -8 -9 -11 -9 -6 0 4 6 16 12 27 10 16 10
22 -5 32 -10 8 -19 23 -19 35 -2 14 -7 19 -18 15 -13 -5 -13 -4 0 13 14 17 13
18 -2 12 -13 -4 -19 2 -25 26 -8 35 -10 45 -12 65 0 7 -5 10 -11 7 -5 -3 -10
0 -10 7 0 9 -3 9 -10 -2 -7 -11 -10 -5 -10 23 0 20 -4 37 -9 37 -5 0 -8 6 -7
14 0 8 -3 15 -9 15 -12 -1 -23 29 -24 62 -1 15 -13 39 -28 54 -16 15 -28 37
-29 49 0 24 -21 76 -29 76 -4 0 -3 -5 1 -12 5 -7 3 -8 -5 -4 -7 5 -10 15 -7
23 7 17 -12 46 -24 38 -10 -6 -17 17 -19 58 0 16 -8 35 -16 43 -8 9 -15 21
-15 27 0 7 -4 6 -10 -3 -8 -13 -11 -13 -22 -1 -7 8 -8 11 -2 8 7 -4 14 0 18 8
3 8 1 15 -3 15 -5 0 -7 9 -4 20 6 24 0 25 -21 4 -9 -8 -16 -11 -16 -5 0 5 4
12 9 15 4 3 6 17 4 31 -3 14 -10 22 -16 18 -7 -4 -8 0 -4 11 4 11 -1 28 -13
43 -12 16 -20 20 -21 12 0 -8 -4 -5 -8 6 -5 11 -4 22 0 25 14 10 -20 49 -39
45 -13 -2 -17 4 -17 26 0 35 3 36 15 7 6 -17 9 -18 9 -6 1 20 -38 90 -47 84
-4 -2 -8 9 -9 25 -1 16 -8 39 -15 51 -7 13 -11 26 -10 31 1 4 -4 7 -10 7 -20
0 -41 -17 -35 -27 3 -5 2 -15 -2 -22 -6 -9 -8 -4 -8 14 0 14 6 29 13 32 8 3
14 10 14 15 0 6 -7 7 -16 4 -14 -5 -15 -4 -4 9 15 18 6 47 -14 39 -8 -3 -17 0
-22 7 -5 8 -3 10 6 4 18 -11 30 15 17 42 -5 12 -13 23 -17 23 -4 0 -10 13 -13
30 -7 33 -60 94 -72 82 -5 -4 -6 -2 -3 3 3 6 2 19 -3 30 -7 19 -8 18 -8 -4z
m59 -67 c0 -2 -7 -4 -15 -4 -8 0 -15 4 -15 10 0 5 7 7 15 4 8 -4 15 -8 15 -10z
m-71 -34 c-6 -16 -15 -30 -20 -30 -9 0 -1 28 14 48 15 19 17 14 6 -18z m86
-23 c1 -32 -10 -45 -19 -22 -3 8 -1 17 4 20 16 10 11 28 -5 21 -8 -3 -15 -1
-15 5 0 6 8 9 18 7 11 -2 17 -13 17 -31z m-78 -59 c-3 -8 -6 -5 -6 6 -1 11 2
17 5 13 3 -3 4 -12 1 -19z m-84 -70 c-3 -13 -12 -30 -19 -39 -8 -9 -11 -19 -7
-24 5 -4 2 -5 -4 -1 -8 4 -13 2 -13 -5 0 -7 -3 -9 -7 -6 -3 4 2 16 11 26 10
11 18 25 20 33 2 14 15 38 21 38 2 0 1 -10 -2 -22z m262 -77 c-6 -5 -25 10
-25 20 0 5 6 4 14 -3 8 -7 12 -15 11 -17z m-357 -81 c0 -17 -4 -28 -9 -25 -10
7 -12 38 -2 48 10 10 10 10 11 -23z m312 -10 c0 -5 -4 -10 -10 -10 -5 0 -10 5
-10 10 0 6 5 10 10 10 6 0 10 -4 10 -10z m-330 -50 c0 -10 -5 -22 -10 -25 -6
-4 -8 -10 -6 -14 3 -4 -4 -12 -15 -19 -23 -15 -25 0 -4 22 9 9 15 21 14 28 -3
26 1 39 11 33 6 -3 10 -15 10 -25z m12 -82 c-7 -7 -12 -8 -12 -2 0 14 12 26
19 19 2 -3 -1 -11 -7 -17z m273 -8 c3 -5 1 -10 -4 -10 -6 0 -11 5 -11 10 0 6
2 10 4 10 3 0 8 -4 11 -10z m229 -116 c5 -12 -8 -54 -17 -54 -1 0 -2 16 -3 35
-1 36 10 46 20 19z m-421 -19 c-3 -9 -8 -14 -10 -11 -3 3 -2 9 2 15 9 16 15
13 8 -4z m317 -5 c0 -5 -18 -10 -40 -10 -22 0 -40 -3 -40 -7 0 -14 17 -35 26
-34 5 1 10 -9 10 -21 1 -12 9 -27 18 -33 20 -15 21 -25 1 -25 -8 0 -15 6 -15
14 0 8 -3 16 -7 18 -11 4 -43 75 -43 93 0 11 12 15 45 15 25 0 45 -4 45 -10z
m-496 -195 c-4 -8 -11 -12 -17 -8 -8 5 -7 8 1 11 7 2 9 9 6 14 -4 7 -2 8 4 4
6 -4 9 -13 6 -21z m744 -25 c-7 -10 -14 -18 -15 -16 -6 6 9 36 18 36 5 0 4 -9
-3 -20z m-749 -24 c9 -11 9 -16 0 -22 -8 -4 -9 -3 -5 4 4 7 2 12 -3 12 -6 0
-11 5 -11 10 0 14 5 13 19 -4z m59 -20 c0 -16 -5 -23 -14 -19 -10 4 -11 9 -1
24 15 24 15 24 15 -5z m522 -50 c0 -3 -4 -8 -10 -11 -5 -3 -10 -1 -10 4 0 6 5
11 10 11 6 0 10 -2 10 -4z m100 -61 c0 -10 -10 -15 -29 -15 -16 0 -34 7 -41
15 -11 13 -7 15 29 15 30 0 41 -4 41 -15z m107 -17 c-3 -8 -6 -5 -6 6 -1 11 2
17 5 13 3 -3 4 -12 1 -19z m-157 -38 c0 -5 -4 -10 -10 -10 -5 0 -10 5 -10 10
0 6 5 10 10 10 6 0 10 -4 10 -10z m170 -40 c0 -5 -4 -10 -10 -10 -5 0 -10 5
-10 10 0 6 5 10 10 10 6 0 10 -4 10 -10z m-20 -90 c0 -5 -18 -10 -39 -10 -22
0 -43 5 -46 10 -4 6 12 10 39 10 25 0 46 -4 46 -10z m-65 -60 c3 -5 1 -10 -4
-10 -6 0 -11 5 -11 10 0 6 2 10 4 10 3 0 8 -4 11 -10z m185 -30 c0 -5 -7 -10
-15 -10 -8 0 -15 5 -15 10 0 6 7 10 15 10 8 0 15 -4 15 -10z m-136 -66 c9 -24
2 -26 -12 -4 -7 11 -8 20 -3 20 5 0 12 -7 15 -16z m235 -5 c11 -19 10 -24 -8
-43 l-22 -21 3 42 c3 49 8 52 27 22z m-129 -29 c0 -5 -20 -10 -45 -10 -25 0
-45 5 -45 10 0 6 20 10 45 10 25 0 45 -4 45 -10z m-10 -60 c0 -11 -4 -20 -9
-20 -5 0 -7 9 -4 20 3 11 7 20 9 20 2 0 4 -9 4 -20z m220 -96 c0 -8 -4 -12
-10 -9 -5 3 -10 10 -10 16 0 5 5 9 10 9 6 0 10 -7 10 -16z m20 -44 c6 -11 8
-26 4 -32 -5 -8 -10 -5 -15 8 -16 41 -8 59 11 24z m-153 -52 c-3 -8 -6 -5 -6
6 -1 11 2 17 5 13 3 -3 4 -12 1 -19z m186 7 c-3 -9 -8 -14 -10 -11 -3 3 -2 9
2 15 9 16 15 13 8 -4z m-205 -60 c-3 -3 -9 2 -12 12 -6 14 -5 15 5 6 7 -7 10
-15 7 -18z m251 -69 c1 -5 -5 -3 -13 4 -8 6 -12 19 -9 27 6 14 8 14 14 -3 4
-10 8 -23 8 -28z m39 -23 c-1 -10 2 -25 7 -33 8 -13 7 -13 -8 -1 -9 7 -14 17
-11 22 3 5 0 9 -5 9 -6 0 -11 5 -11 10 0 6 7 10 16 10 9 0 14 -7 12 -17z
m-170 -48 c-3 -3 -9 2 -12 12 -6 14 -5 15 5 6 7 -7 10 -15 7 -18z m219 -77
c-3 -7 -5 -2 -5 12 0 14 2 19 5 13 2 -7 2 -19 0 -25z m-4 -43 c-3 -9 -8 -14
-10 -11 -3 3 -2 9 2 15 9 16 15 13 8 -4z m-163 -71 c0 -8 -4 -12 -10 -9 -5 3
-10 10 -10 16 0 5 5 9 10 9 6 0 10 -7 10 -16z m30 -34 c0 -5 -7 -10 -16 -10
-8 0 -12 5 -9 10 3 6 10 10 16 10 5 0 9 -4 9 -10z m214 -25 c-4 -8 -11 -15
-16 -15 -6 0 -5 6 2 15 7 8 14 15 16 15 2 0 1 -7 -2 -15z m26 -60 c0 -5 -5 -3
-10 5 -5 8 -10 20 -10 25 0 6 5 3 10 -5 5 -8 10 -19 10 -25z m10 -25 c0 -5 -4
-10 -10 -10 -5 0 -10 5 -10 10 0 6 5 10 10 10 6 0 10 -4 10 -10z m25 -10 c3
-5 1 -10 -4 -10 -6 0 -11 5 -11 10 0 6 2 10 4 10 3 0 8 -4 11 -10z m-178 -52
c-3 -8 -6 -5 -6 6 -1 11 2 17 5 13 3 -3 4 -12 1 -19z m235 -73 c7 4 4 -1 -6
-9 -26 -21 -35 -20 -33 3 1 15 4 17 14 10 7 -6 18 -8 25 -4z m-132 -75 c0 -5
-2 -10 -4 -10 -3 0 -8 5 -11 10 -3 6 -1 10 4 10 6 0 11 -4 11 -10z m28 -47
c-4 -22 -38 -30 -38 -10 0 14 13 24 33 26 5 1 7 -7 5 -16z m-26 -75 c-7 -7
-12 -8 -12 -2 0 14 12 26 19 19 2 -3 -1 -11 -7 -17z"/>
<path d="M2630 4061 c0 -6 4 -13 10 -16 6 -3 7 1 4 9 -7 18 -14 21 -14 7z"/>
<path d="M2946 2847 c3 -10 9 -15 12 -12 3 3 0 11 -7 18 -10 9 -11 8 -5 -6z"/>
<path d="M1877 2601 c3 -13 -2 -21 -16 -26 -12 -3 -21 -15 -21 -26 0 -10 -5
-19 -11 -19 -5 0 -7 -4 -4 -10 3 -5 2 -10 -4 -10 -10 0 -18 -20 -26 -59 -2
-12 -11 -28 -20 -37 -19 -20 -47 -83 -40 -94 3 -4 -2 -10 -10 -14 -8 -3 -20
-26 -26 -50 -6 -25 -14 -44 -18 -42 -3 2 -14 -13 -23 -35 -9 -22 -12 -37 -7
-34 5 4 9 -2 9 -11 0 -10 -3 -15 -6 -11 -10 10 -42 -26 -49 -55 -4 -16 -10
-28 -14 -28 -4 0 -12 -14 -18 -30 -9 -23 -8 -29 0 -23 7 3 9 3 5 -2 -4 -4 -3
-16 3 -26 7 -15 6 -19 -5 -19 -8 0 -18 5 -22 12 -4 7 -3 8 4 4 7 -4 12 -2 12
3 0 6 -4 11 -9 11 -15 0 -23 -19 -15 -32 14 -23 10 -108 -5 -108 -10 0 -12 11
-8 45 6 43 -5 61 -17 30 -3 -8 -1 -15 4 -15 6 0 1 -9 -11 -21 -13 -13 -18 -27
-14 -40 5 -13 2 -19 -10 -19 -13 0 -15 -6 -10 -29 4 -18 2 -32 -6 -37 -9 -5
-11 -1 -7 14 9 34 -9 26 -21 -9 -14 -41 -14 -66 1 -75 6 -4 8 -3 4 4 -3 6 -2
13 4 17 10 6 14 -6 11 -37 -1 -10 3 -18 9 -18 6 0 9 -4 6 -9 -8 -12 19 -33 29
-23 5 4 5 1 1 -6 -11 -19 28 -64 43 -49 8 8 11 4 11 -18 1 -34 24 -72 35 -55
7 11 -3 72 -14 80 -9 7 -41 58 -41 65 0 3 5 5 10 5 6 0 10 -7 10 -15 0 -8 7
-15 16 -15 8 0 12 -4 9 -10 -3 -5 -3 -15 1 -22 5 -8 10 -6 15 8 5 12 7 6 4
-18 -2 -21 1 -38 6 -38 5 0 9 5 9 10 0 6 0 12 0 15 0 3 11 24 23 47 14 26 22
60 22 86 0 23 2 42 6 42 14 0 17 -14 8 -39 -9 -24 -8 -25 6 -7 8 11 15 28 15
38 0 10 4 18 9 18 11 0 9 19 -3 39 -6 10 -5 12 2 7 7 -4 12 -2 12 4 0 6 5 8
12 4 7 -5 9 0 6 14 -4 13 -2 20 5 19 6 -1 13 8 15 21 2 12 7 22 12 22 16 0 60
103 55 129 -3 14 -2 20 1 13 4 -10 9 -10 19 -2 10 9 11 18 4 36 -13 35 -11 41
4 19 13 -16 14 -15 9 16 -4 33 -4 33 12 14 16 -19 17 -19 12 15 -3 19 -3 29 0
22 12 -26 41 36 38 79 -2 30 1 39 14 39 12 0 13 -3 4 -12 -13 -13 -17 -52 -4
-44 5 3 15 23 22 46 7 22 19 45 26 51 7 6 11 16 8 23 -3 8 2 16 10 19 19 8 21
46 4 82 -9 21 -17 25 -35 20 -18 -4 -23 -1 -23 12 0 14 2 15 9 5 7 -11 9 -11
14 1 7 19 -11 37 -32 30 -10 -3 -12 -2 -6 4 15 12 13 33 -5 46 -8 7 -15 17
-16 22 0 6 -6 25 -13 43 -14 34 -32 45 -24 13z m43 -101 c0 -5 -2 -10 -4 -10
-3 0 -8 5 -11 10 -3 6 -1 10 4 10 6 0 11 -4 11 -10z m64 -122 c-3 -4 -9 -8
-15 -8 -5 0 -9 4 -9 8 0 5 7 9 15 9 8 0 12 -4 9 -9z m-223 -31 c-10 -9 -11 -8
-5 6 3 10 9 15 12 12 3 -3 0 -11 -7 -18z m222 -12 c-3 -9 -8 -14 -10 -11 -3 3
-2 9 2 15 9 16 15 13 8 -4z m-223 -70 c0 -8 -8 -15 -17 -14 -11 0 -13 3 -5 6
6 2 10 9 6 14 -3 5 0 9 5 9 6 0 11 -7 11 -15z m40 -219 c0 -8 -4 -18 -10 -21
-5 -3 -10 -4 -10 -1 0 2 -3 11 -6 20 -4 11 -1 16 10 16 9 0 16 -6 16 -14z m5
-87 c-6 -30 -13 -35 -21 -14 -4 10 -1 21 7 26 19 12 18 12 14 -12z m-95 -5 c0
-8 -4 -12 -10 -9 -5 3 -10 10 -10 16 0 5 5 9 10 9 6 0 10 -7 10 -16z m10 -86
c0 -5 -4 -8 -10 -8 -5 0 -10 10 -10 23 0 18 2 19 10 7 5 -8 10 -18 10 -22z
m20 -18 c0 -5 -5 -10 -11 -10 -5 0 -7 5 -4 10 3 6 8 10 11 10 2 0 4 -4 4 -10z
m-40 -35 c0 -8 -2 -15 -4 -15 -2 0 -6 7 -10 15 -3 8 -1 15 4 15 6 0 10 -7 10
-15z m0 -75 c0 -5 -5 -10 -11 -10 -5 0 -7 5 -4 10 3 6 8 10 11 10 2 0 4 -4 4
-10z m-210 -25 c0 -8 -4 -15 -10 -15 -5 0 -10 7 -10 15 0 8 5 15 10 15 6 0 10
-7 10 -15z m154 -40 c3 -9 0 -15 -8 -15 -7 0 -13 7 -13 15 0 8 4 15 8 15 4 0
9 -7 13 -15z m-104 -83 c0 -13 -12 -22 -22 -16 -10 6 -1 24 13 24 5 0 9 -4 9
-8z"/>
</g>
</svg>
